# xmcd CD database file
#
# Track frame offsets:
#	150
#	20750
#	45000
#	73645
#	108705
#	127475
#	160230
#	202917
#
# Disc length: 3039 seconds
#
# Revision: 2
# Processed by: cddbd v1.5.1PL0 Copyright (c) Steve Scherf et al.
# Submitted via: CDex 1.51
#
DISCID=6e0bdd08
DTITLE=Quartett and Brass - More than four
DYEAR=1991
DGENRE=Jazz
TTITLE0=Ritter Hans
TTITLE1=Bel Air
TTITLE2=B and B
TTITLE3=My sweet darlin' man
TTITLE4=Taucher
TTITLE5=Saudade da bahia
TTITLE6=Intuitive surprise
TTITLE7=Family life
EXTD=YEAR: 1991
EXTT0=
EXTT1=
EXTT2=
EXTT3=
EXTT4=
EXTT5=
EXTT6=
EXTT7=
PLAYORDER=
